<svg width="440" height="221" viewBox="0 0 440 221" fill="none" xmlns="http://www.w3.org/2000/svg">
<path d="M40 167.64V58.4269C40 51.2463 45.821 45.4253 53.0016 45.4253H172.039C173.794 45.4253 175.217 46.8482 175.217 48.6035C175.217 50.3587 173.794 51.7816 172.039 51.7816H53.0016C49.3315 51.7816 46.3563 54.7568 46.3563 58.4269V167.64C46.3563 171.31 49.3315 174.286 53.0016 174.286H386.998C390.668 174.286 393.644 171.31 393.644 167.64V58.4269C393.644 54.7568 390.668 51.7816 386.998 51.7816H215.088C213.333 51.7816 211.91 50.3587 211.91 48.6035C211.91 46.8482 213.333 45.4253 215.088 45.4253H386.998C394.179 45.4253 400 51.2463 400 58.4269V167.64C400 174.821 394.179 180.642 386.998 180.642H53.0016C45.821 180.642 40 174.821 40 167.64Z" fill="#F36B36"/>
<path d="M59 160.193V66.2344H77.4912V70.7416C82.3451 67.1974 87.8154 65.4254 93.9021 65.4254C99.7576 65.4254 105.035 66.8507 109.735 69.7015C114.435 72.4751 118.172 76.2504 120.945 81.0273C123.719 85.7271 125.106 91.0048 125.106 96.8604C125.106 102.716 123.681 108.032 120.83 112.809C118.056 117.509 114.242 121.246 109.388 124.019C104.612 126.793 99.2568 128.18 93.3242 128.18C90.4735 128.18 87.7384 127.833 85.1188 127.14C82.4992 126.446 80.0337 125.445 77.7223 124.135V160.193H59ZM90.6661 112.347C93.748 112.347 96.4832 111.692 98.8716 110.382C101.26 108.995 103.148 107.146 104.535 104.835C105.998 102.446 106.73 99.7881 106.73 96.8604C106.73 93.9326 105.998 91.313 104.535 89.0016C103.148 86.6132 101.222 84.7641 98.756 83.4543C96.3676 82.0674 93.671 81.374 90.6661 81.374C88.0466 81.374 85.6581 81.7978 83.5008 82.6453C81.3435 83.4157 79.4173 84.61 77.7223 86.2279V107.608C79.3403 109.072 81.2665 110.228 83.5008 111.075C85.7352 111.923 88.1236 112.347 90.6661 112.347Z" fill="#241E4F"/>
<path d="M133.94 127.371V66.2344H152.662V72.3596C154.665 69.8941 157.015 68.0449 159.712 66.8122C162.409 65.5024 165.413 64.8475 168.726 64.8475C172.039 64.9246 174.389 65.4254 175.776 66.3499V82.6453C174.543 82.0289 173.157 81.5666 171.616 81.2584C170.075 80.9502 168.495 80.7962 166.877 80.7962C163.949 80.7962 161.214 81.4896 158.672 82.8764C156.206 84.1862 154.203 86.0738 152.662 88.5393V127.371H133.94Z" fill="#241E4F"/>
<path d="M183.824 127.371V66.2344H202.547V127.371H183.824ZM193.186 60.5714C190.335 60.5714 187.908 59.5698 185.905 57.5666C183.901 55.5634 182.9 53.1364 182.9 50.2857C182.9 47.435 183.901 45.008 185.905 43.0048C187.908 41.0016 190.335 40 193.186 40C196.036 40 198.463 41.0016 200.466 43.0048C202.47 45.008 203.471 47.435 203.471 50.2857C203.471 53.1364 202.47 55.5634 200.466 57.5666C198.463 59.5698 196.036 60.5714 193.186 60.5714Z" fill="#241E4F"/>
<path d="M214.071 127.371V66.2344H232.794V70.1637C237.108 66.7737 242.193 65.0787 248.049 65.0787C251.901 65.0787 255.368 65.8106 258.45 67.2745C261.532 68.7384 264.113 70.8186 266.193 73.5153C268.659 70.8186 271.586 68.7384 274.977 67.2745C278.367 65.8106 282.065 65.0787 286.071 65.0787C290.694 65.0787 294.777 66.1188 298.322 68.199C301.866 70.2793 304.639 73.1685 306.643 76.8668C308.723 80.565 309.763 84.8411 309.763 89.695V127.371H291.041V92.2376C291.041 88.8475 290.116 86.1509 288.267 84.1477C286.495 82.1445 284.107 81.1429 281.102 81.1429C279.021 81.1429 277.134 81.5281 275.439 82.2986C273.744 83.069 272.28 84.2247 271.047 85.7657C271.124 86.382 271.163 87.0369 271.163 87.7303C271.24 88.3467 271.278 89.0016 271.278 89.695V127.371H252.556V92.2376C252.556 88.8475 251.631 86.1509 249.782 84.1477C248.01 82.1445 245.622 81.1429 242.617 81.1429C240.537 81.1429 238.649 81.5281 236.954 82.2986C235.336 82.992 233.949 84.0706 232.794 85.5345V127.371H214.071Z" fill="#241E4F"/>
<path d="M351.233 128.527C344.992 128.527 339.368 127.14 334.36 124.366C329.352 121.515 325.384 117.701 322.456 112.925C319.528 108.148 318.064 102.793 318.064 96.8604C318.064 90.9278 319.528 85.573 322.456 80.7962C325.384 75.9422 329.352 72.1284 334.36 69.3547C339.368 66.504 344.992 65.0787 351.233 65.0787C357.474 65.0787 363.098 66.504 368.106 69.3547C373.114 72.1284 377.082 75.9422 380.01 80.7962C382.937 85.573 384.401 90.9278 384.401 96.8604C384.401 102.793 382.937 108.148 380.01 112.925C377.082 117.701 373.114 121.515 368.106 124.366C363.098 127.14 357.474 128.527 351.233 128.527ZM351.233 112.347C354.083 112.347 356.626 111.653 358.86 110.266C361.095 108.88 362.867 107.031 364.177 104.719C365.486 102.331 366.141 99.7111 366.141 96.8604C366.141 93.9326 365.486 91.313 364.177 89.0016C362.867 86.6132 361.056 84.7255 358.745 83.3387C356.51 81.9519 354.006 81.2584 351.233 81.2584C348.459 81.2584 345.917 81.9519 343.605 83.3387C341.371 84.7255 339.599 86.6132 338.289 89.0016C336.979 91.313 336.324 93.9326 336.324 96.8604C336.324 99.7111 336.979 102.331 338.289 104.719C339.599 107.031 341.371 108.88 343.605 110.266C345.917 111.653 348.459 112.347 351.233 112.347Z" fill="#241E4F"/>
<path fill-rule="evenodd" clip-rule="evenodd" d="M245.049 140.321C246.662 140.321 248.114 140.694 249.405 141.441C250.703 142.181 251.727 143.259 252.476 144.674C253.232 146.088 253.61 147.804 253.61 149.821C253.61 151.837 253.232 153.553 252.476 154.968C251.727 156.383 250.703 157.464 249.405 158.21C248.114 158.951 246.662 159.321 245.049 159.321C243.424 159.321 241.966 158.948 240.674 158.201C239.383 157.455 238.362 156.374 237.612 154.959C236.862 153.544 236.487 151.832 236.487 149.821C236.487 147.804 236.862 146.088 237.612 144.674C238.362 143.259 239.383 142.181 240.674 141.441C241.966 140.694 243.424 140.321 245.049 140.321ZM245.049 143.78C244.114 143.78 243.299 144.012 242.603 144.475C241.906 144.939 241.364 145.619 240.978 146.516C240.597 147.413 240.406 148.514 240.406 149.821C240.406 151.127 240.597 152.229 240.978 153.126C241.365 154.023 241.906 154.703 242.603 155.167C243.299 155.63 244.114 155.862 245.049 155.862C245.983 155.862 246.798 155.63 247.495 155.167C248.191 154.703 248.73 154.023 249.11 153.126C249.497 152.229 249.691 151.127 249.691 149.821C249.691 148.514 249.497 147.413 249.11 146.516C248.73 145.619 248.191 144.939 247.495 144.475C246.798 144.012 245.983 143.78 245.049 143.78Z" fill="#F36B36"/>
<path d="M304.702 140.321C305.738 140.321 306.702 140.474 307.595 140.781C308.487 141.082 309.279 141.51 309.969 142.064C310.666 142.618 311.234 143.277 311.675 144.041C312.115 144.8 312.398 145.637 312.523 146.552H308.595C308.47 146.112 308.294 145.724 308.068 145.387C307.842 145.044 307.565 144.755 307.238 144.52C306.916 144.279 306.547 144.096 306.131 143.969C305.72 143.843 305.265 143.78 304.765 143.78C303.83 143.78 303.009 144.014 302.301 144.484C301.598 144.953 301.051 145.637 300.658 146.534C300.265 147.425 300.069 148.514 300.069 149.803C300.069 151.091 300.262 152.187 300.649 153.09C301.036 153.993 301.583 154.682 302.292 155.158C303 155.627 303.836 155.862 304.8 155.862C305.675 155.862 306.422 155.706 307.041 155.393C307.666 155.074 308.143 154.625 308.47 154.047C308.786 153.498 308.952 152.854 308.968 152.114H305.041V149.171H312.692V151.501C312.692 153.126 312.353 154.523 311.675 155.691C310.996 156.853 310.062 157.75 308.872 158.382C307.681 159.008 306.318 159.321 304.783 159.321C303.069 159.321 301.563 158.939 300.265 158.174C298.968 157.404 297.956 156.311 297.23 154.896C296.51 153.475 296.15 151.789 296.15 149.839C296.15 148.34 296.364 147.004 296.792 145.83C297.227 144.65 297.834 143.65 298.614 142.831C299.393 142.013 300.301 141.39 301.337 140.962C302.372 140.535 303.494 140.321 304.702 140.321Z" fill="#F36B36"/>
<path d="M346.237 140.321C347.272 140.321 348.237 140.474 349.129 140.781C350.022 141.082 350.814 141.51 351.504 142.064C352.2 142.618 352.769 143.277 353.209 144.041C353.649 144.8 353.932 145.637 354.057 146.552H350.129C350.004 146.112 349.828 145.724 349.602 145.387C349.376 145.044 349.1 144.755 348.772 144.52C348.451 144.279 348.082 144.096 347.665 143.969C347.254 143.843 346.799 143.78 346.299 143.78C345.365 143.78 344.544 144.014 343.835 144.484C343.133 144.953 342.585 145.637 342.192 146.534C341.8 147.425 341.603 148.514 341.603 149.803C341.603 151.091 341.797 152.187 342.184 153.09C342.571 153.993 343.118 154.682 343.826 155.158C344.535 155.627 345.371 155.862 346.335 155.862C347.21 155.862 347.957 155.706 348.576 155.393C349.2 155.074 349.677 154.625 350.004 154.047C350.321 153.498 350.487 152.854 350.502 152.114H346.576V149.171H354.227V151.501C354.227 153.126 353.887 154.523 353.209 155.691C352.53 156.853 351.596 157.75 350.406 158.382C349.215 159.008 347.852 159.321 346.317 159.321C344.603 159.321 343.097 158.939 341.8 158.174C340.502 157.404 339.491 156.311 338.764 154.896C338.044 153.475 337.684 151.789 337.684 149.839C337.684 148.34 337.899 147.004 338.327 145.83C338.762 144.65 339.369 143.65 340.148 142.831C340.928 142.013 341.835 141.39 342.871 140.962C343.906 140.535 345.029 140.321 346.237 140.321Z" fill="#F36B36"/>
<path fill-rule="evenodd" clip-rule="evenodd" d="M96.3204 140.574C97.6655 140.574 98.7877 140.775 99.6864 141.179C100.585 141.582 101.261 142.142 101.713 142.859C102.165 143.569 102.391 144.388 102.391 145.315C102.391 146.037 102.248 146.672 101.963 147.22C101.677 147.762 101.284 148.208 100.784 148.557C100.29 148.9 99.7247 149.143 99.0879 149.288V149.469C99.7842 149.499 100.436 149.698 101.043 150.065C101.656 150.432 102.153 150.947 102.534 151.609C102.915 152.265 103.105 153.048 103.105 153.957C103.105 154.938 102.864 155.814 102.382 156.585C101.906 157.349 101.201 157.954 100.266 158.4C99.3319 158.845 98.1804 159.068 96.8117 159.068H89V140.574H96.3204ZM92.8658 155.872H96.0169C97.094 155.872 97.8796 155.664 98.3736 155.248C98.8676 154.827 99.1146 154.267 99.1146 153.568C99.1145 153.057 98.9926 152.605 98.7486 152.214C98.5046 151.823 98.1564 151.516 97.7041 151.293C97.2578 151.07 96.7253 150.959 96.1064 150.959H92.8658V155.872ZM92.8658 148.313H95.7314C96.2611 148.313 96.7312 148.22 97.1419 148.033C97.5584 147.84 97.8859 147.569 98.1239 147.22C98.3679 146.871 98.4899 146.452 98.4899 145.965C98.4898 145.297 98.2547 144.758 97.7847 144.349C97.3205 143.939 96.6599 143.734 95.8029 143.734H92.8658V148.313Z" fill="#F36B36"/>
<path d="M115.562 148.539H115.741L119.91 140.574H124.24L117.571 152.53V159.068H113.732V152.53L107.063 140.574H111.393L115.562 148.539Z" fill="#F36B36"/>
<path fill-rule="evenodd" clip-rule="evenodd" d="M144.411 140.574C145.791 140.574 146.97 140.824 147.946 141.323C148.928 141.817 149.675 142.518 150.187 143.428C150.705 144.331 150.963 145.393 150.963 146.615C150.963 147.843 150.702 148.9 150.178 149.785C149.654 150.664 148.895 151.338 147.901 151.808C147.847 151.833 147.791 151.858 147.736 151.882L151.615 159.068H147.348L143.885 152.512H141.063V159.068H137.197V140.574H144.411ZM141.063 149.369H143.688C144.426 149.369 145.039 149.267 145.527 149.062C146.015 148.858 146.378 148.551 146.616 148.141C146.86 147.732 146.982 147.223 146.982 146.615C146.982 146.001 146.86 145.483 146.616 145.062C146.378 144.64 146.012 144.321 145.518 144.105C145.03 143.882 144.414 143.771 143.67 143.771H141.063V149.369Z" fill="#F36B36"/>
<path d="M160.075 159.068H156.209V140.574H160.075V159.068Z" fill="#F36B36"/>
<path d="M179.553 142.895L170.421 155.844H179.571V159.068H165.573V156.747L174.697 143.798H165.555V140.574H179.553V142.895Z" fill="#F36B36"/>
<path d="M197.371 143.798H188.917V148.205H196.737V151.428H188.917V155.844H197.407V159.068H185.051V140.574H197.371V143.798Z" fill="#F36B36"/>
<path d="M221.093 153H221.307L226.343 140.574H231.11V159.068H227.36V147.03H227.208L222.477 158.978H219.924L215.192 146.985H215.041V159.068H211.291V140.574H216.058L221.093 153Z" fill="#F36B36"/>
<path fill-rule="evenodd" clip-rule="evenodd" d="M266.201 140.574C267.582 140.574 268.76 140.824 269.736 141.323C270.718 141.817 271.465 142.518 271.977 143.428C272.495 144.331 272.754 145.393 272.754 146.615C272.754 147.843 272.492 148.9 271.968 149.785C271.444 150.664 270.686 151.338 269.692 151.808C269.637 151.834 269.581 151.858 269.525 151.883L273.406 159.068H269.138L265.675 152.512H262.853V159.068H258.987V140.574H266.201ZM262.853 149.369H265.478C266.216 149.369 266.829 149.267 267.317 149.062C267.805 148.858 268.168 148.551 268.406 148.141C268.65 147.732 268.772 147.223 268.772 146.615C268.772 146.001 268.65 145.483 268.406 145.062C268.168 144.64 267.802 144.321 267.308 144.105C266.82 143.882 266.204 143.771 265.46 143.771H262.853V149.369Z" fill="#F36B36"/>
<path d="M292.319 143.798H286.722V159.068H282.901V143.798H277.303V140.574H292.319V143.798Z" fill="#F36B36"/>
<path fill-rule="evenodd" clip-rule="evenodd" d="M334.151 159.068H330.008L328.654 154.851H322.053L320.697 159.068H316.555L322.866 140.574H327.847L334.151 159.068ZM323.035 151.799H327.675L325.428 144.8H325.285L323.035 151.799Z" fill="#F36B36"/>
<path d="M371.964 143.798H363.51V148.205H371.331V151.428H363.51V155.844H372V159.068H359.644V140.574H371.964V143.798Z" fill="#F36B36"/>
</svg>
